<svg width="160" height="170" viewBox="0 0 160 170" version="1.1" xmlns="http://www.w3.org/2000/svg" xmlns:xlink="http://www.w3.org/1999/xlink">
<g id="Canvas" fill="none">
<g id="logo">
<g id="Union">
<path fill-rule="evenodd" clip-rule="evenodd" d="M 0 0L 0 53.125L 32 53.125L 32 42.5L 42.6667 42.5L 53.3333 31.875L 53.3333 10.625L 42.6667 0L 0 0ZM 90.6667 0L 58.6667 0L 58.6667 53.125L 101.333 53.125L 101.333 31.875L 90.6667 31.875L 90.6667 0ZM 144 0L 160 15.9375L 160 53.125L 106.667 53.125L 106.667 15.9375L 122.773 0L 144 0ZM 32 69.0625L 21.3333 58.4375L 0 58.4375L 0 111.562L 53.3333 111.562L 53.3333 58.4375L 32 58.4375L 32 69.0625ZM 64 79.6875L 58.6667 79.6875L 58.6667 58.4375L 101.333 58.4375L 101.333 79.6875L 96 79.6875L 96 90.3125L 101.333 90.3125L 101.333 111.562L 58.6667 111.562L 58.6667 90.3125L 64 90.3125L 64 79.6875ZM 117.333 58.4375L 106.667 69.0625L 106.667 100.938L 117.333 111.562L 160 111.562L 160 58.4375L 117.333 58.4375ZM 16 132.812L 37.3333 132.812L 37.3333 154.062L 16 154.062L 16 132.812ZM 58.6667 138.125L 64 138.125L 64 148.75L 58.6667 148.75L 58.6667 170L 101.333 170L 101.333 148.75L 96 148.75L 96 138.125L 101.333 138.125L 101.333 116.875L 58.6667 116.875L 58.6667 138.125ZM 106.667 127.5L 117.333 116.875L 149.333 116.875L 160 127.5L 160 154.062L 144 154.062L 144 170L 117.333 170L 106.667 159.375L 106.667 127.5Z" fill="white"/>
</g>
</g>
</g>
</svg>

